<svg xmlns="http://www.w3.org/2000/svg" viewBox="0 0 1081 1081"><defs><style>.cls-1{fill:#00232a;stroke:#ed1c24;}.cls-1,.cls-2,.cls-3{stroke-miterlimit:10;}.cls-2,.cls-3{fill:none;stroke:#fff;stroke-width:3px;}.cls-2{stroke-linecap:round;}.cls-4{font-size:53px;fill:#f1e5dc;font-family:Poppins-Bold, Poppins;font-weight:700;}.cls-5{font-size:19px;fill:#d1c5bd;font-family:Poppins-Regular, Poppins;letter-spacing:0.41em;}</style></defs><g id="Layer_3" data-name="Layer 3"><rect class="cls-1" x="0.5" y="0.5" width="1080" height="1080"/></g><g id="Layer_1" data-name="Layer 1"><line class="cls-2" x1="305.02" y1="443.08" x2="138.8" y2="443.08"/><line class="cls-2" x1="131.86" y1="460.72" x2="131.23" y2="460.72"/><line class="cls-2" x1="131.86" y1="480.05" x2="131.23" y2="480.05"/><rect class="cls-2" x="131.86" y="460.72" width="816.91" height="19.33"/><polyline class="cls-2" points="131.23 543.17 799.17 543.17 815.98 543.17 816.82 543.17 829.49 543.17 833.62 543.17"/><polyline class="cls-2" points="850.43 543.17 852.04 543.17 868.84 543.17 870.45 543.17 887.26 543.17 948.77 543.17"/><line class="cls-2" x1="800.58" y1="617.84" x2="138.8" y2="617.84"/><line class="cls-2" x1="940.36" y1="617.84" x2="867.3" y2="617.84"/><path class="cls-2" d="M866.8,617.34a1272.24,1272.24,0,0,1,68.86,184H781.8" transform="translate(0.5 0.5)"/><path class="cls-2" d="M792.27,479.55c11.51,18.73,23.57,39.18,35.84,61.51l.88,1.61q2.06,3.76,4.13,7.61" transform="translate(0.5 0.5)"/><path class="cls-2" d="M210.61,617.34a1765,1765,0,0,0-72.31,184H303" transform="translate(0.5 0.5)"/><path class="cls-2" d="M248.29,540.74c11.56-22,22.93-42.43,33.89-61.19" transform="translate(0.5 0.5)"/><path class="cls-2" d="M304.52,442.58C317.3,422.13,329.24,404.2,340,388.8,395.4,309,456.68,256,536.56,256.05c90.8,0,162.92,79.69,221,168.88q5.54,8.49,11.43,17.65" transform="translate(0.5 0.5)"/><path class="cls-2" d="M475.22,801H603.36" transform="translate(0.5 0.5)"/><polyline class="cls-3" points="948.77 559.03 948.77 557.52 948.77 543.8 948.77 543.17 948.77 543.07"/><line class="cls-3" x1="940.36" y1="617.85" x2="940.36" y2="574.58"/><line class="cls-3" x1="138.8" y1="617.85" x2="138.8" y2="574.99"/><polyline class="cls-3" points="131.23 559.03 131.23 557.7 131.23 543.17 131.23 543.07"/><polyline class="cls-3" points="867.3 617.85 800.59 617.85 800.58 617.85"/><path class="cls-3" d="M800.09,617.34v0a1109.46,1109.46,0,0,1,35.58,155.1c.25,1.61,3.78,27.21,3.8,27.21l-57.67.16" transform="translate(0.5 0.5)"/><path class="cls-3" d="M746.24,479.55q14.61,30.33,27,61.51c.21.54.43,1.07.64,1.61" transform="translate(0.5 0.5)"/><path class="cls-3" d="M780,558.53,778.65,555" transform="translate(0.5 0.5)"/><path class="cls-3" d="M283.15,617.34c-18.23,69.41-29.51,133.82-40.67,184l41.24-.12,19.26-.05" transform="translate(0.5 0.5)"/><path class="cls-3" d="M327.86,479.55c-8.21,20.12-15.49,40.66-22.17,61.19l-.63,1.93" transform="translate(0.5 0.5)"/><path class="cls-3" d="M300.34,557.55l-.3,1" transform="translate(0.5 0.5)"/><path class="cls-3" d="M344.33,442.58c26.25-53.8,61.17-102.47,111.8-137.26,35.1-24.12,81.53-32.86,122.45-19.92,62.53,19.79,106.6,82.36,137.53,136.67q5.8,10.2,11.34,20.51" transform="translate(0.5 0.5)"/><line class="cls-3" x1="138.8" y1="443.08" x2="138.8" y2="459.61"/><line class="cls-3" x1="148.04" y1="480.05" x2="148.04" y2="543.07"/><line class="cls-3" x1="931.12" y1="480.05" x2="931.12" y2="543.07"/><polyline class="cls-3" points="305.02 443.08 344.83 443.08 352.08 443.08 721.88 443.08 727.95 443.08 769.47 443.08 940.36 443.08 940.36 460.73"/><path class="cls-3" d="M721.38,442.58H351.58q4.73-7.31,9.53-14.55C409,355.74,475.26,268.6,574.89,300.28c45.28,14.41,78.4,50.86,106.82,87.24,10.38,13.29,20.22,27,29.86,40.82Q716.52,435.44,721.38,442.58Z" transform="translate(0.5 0.5)"/><line class="cls-3" x1="284.22" y1="617.85" x2="284.22" y2="801.85"/><line class="cls-3" x1="303.48" y1="635.49" x2="303.48" y2="801.85"/><line class="cls-3" x1="800.59" y1="617.85" x2="800.59" y2="800.24"/><line class="cls-2" x1="782.3" y1="635.49" x2="303.48" y2="635.49"/><line class="cls-3" x1="782.3" y1="800.35" x2="782.3" y2="635.49"/><line class="cls-2" x1="619.37" y1="481.73" x2="594.79" y2="506.31"/><line class="cls-2" x1="458.22" y1="481.73" x2="482.8" y2="506.31"/><line class="cls-3" x1="482.76" y1="558.61" x2="482.76" y2="506.8"/><line class="cls-3" x1="594.79" y1="557.88" x2="594.79" y2="506.8"/><line class="cls-2" x1="742.49" y1="682.96" x2="335.41" y2="682.96"/><line class="cls-2" x1="303.48" y1="698.51" x2="449.26" y2="698.51"/><line class="cls-2" x1="782.3" y1="698.51" x2="628.64" y2="698.51"/><polyline class="cls-3" points="335.41 698.63 335.41 698.5 335.41 682.97"/><line class="cls-3" x1="304.32" y1="715.31" x2="782.3" y2="715.31"/><line class="cls-3" x1="624.44" y1="716.89" x2="624.44" y2="745.14"/><line class="cls-3" x1="455.98" y1="716.57" x2="455.98" y2="745.14"/><line class="cls-3" x1="304.32" y1="746.4" x2="782.3" y2="746.4"/><polyline class="cls-3" points="742.49 698.87 742.49 698.5 742.49 682.97"/><line class="cls-3" x1="628.64" y1="698.51" x2="612.05" y2="715.1"/><line class="cls-3" x1="449.48" y1="698.87" x2="466.28" y2="715.67"/><line class="cls-3" x1="643.77" y1="480.05" x2="643.77" y2="557.88"/><line class="cls-3" x1="746.74" y1="480.05" x2="746.74" y2="557.88"/><rect class="cls-3" x="658.09" y="480.05" width="31.92" height="38.65"/><rect class="cls-3" x="700.27" y="480.05" width="31.93" height="38.65"/><line class="cls-2" x1="594.79" y1="441.72" x2="594.79" y2="386.53"/><line class="cls-2" x1="539.27" y1="441.72" x2="539.27" y2="387.38"/><line class="cls-2" x1="480.66" y1="441.72" x2="480.66" y2="387.38"/><rect class="cls-3" x="495.47" y="497.7" width="86.96" height="9.1"/><line class="cls-3" x1="594.47" y1="523.74" x2="484.97" y2="523.74"/><line class="cls-3" x1="358.51" y1="746.4" x2="358.51" y2="801.53"/><line class="cls-3" x1="376.37" y1="746.4" x2="376.37" y2="801.85"/><line class="cls-3" x1="475.72" y1="746.4" x2="475.72" y2="803.54"/><line class="cls-3" x1="603.86" y1="746.87" x2="603.86" y2="801.06"/><line class="cls-3" x1="585.79" y1="746.4" x2="585.79" y2="802.28"/><line class="cls-3" x1="572.77" y1="746.4" x2="572.77" y2="801.53"/><line class="cls-3" x1="507.23" y1="746.4" x2="507.23" y2="801.11"/><line class="cls-3" x1="492.53" y1="746.4" x2="492.53" y2="801.15"/><line class="cls-3" x1="624.44" y1="731.01" x2="457.88" y2="731.01"/><line class="cls-3" x1="720.23" y1="746.87" x2="720.23" y2="803.54"/><line class="cls-3" x1="702.86" y1="748.23" x2="702.86" y2="746.86"/><rect class="cls-3" x="131.23" y="541.25" width="16.8" height="16.8"/><rect class="cls-3" x="148.04" y="541.25" width="16.8" height="16.8"/><rect class="cls-3" x="164.84" y="541.25" width="16.8" height="16.8"/><rect class="cls-3" x="181.65" y="541.25" width="16.8" height="16.8"/><rect class="cls-3" x="200.06" y="541.25" width="16.8" height="16.8"/><rect class="cls-3" x="218.48" y="541.25" width="16.8" height="16.8"/><rect class="cls-3" x="234.48" y="541.25" width="16.8" height="16.8"/><rect class="cls-3" x="252.09" y="541.25" width="16.8" height="16.8"/><rect class="cls-3" x="268.89" y="541.25" width="16.8" height="16.8"/><rect class="cls-3" x="285.69" y="541.25" width="16.8" height="16.8"/><rect class="cls-3" x="302.5" y="541.25" width="16.8" height="16.8"/><rect class="cls-3" x="319.3" y="541.25" width="16.8" height="16.8"/><rect class="cls-3" x="336.11" y="541.25" width="16.8" height="16.8"/><rect class="cls-3" x="354.38" y="541.25" width="16.8" height="16.8"/><rect class="cls-3" x="371.19" y="541.25" width="16.8" height="16.8"/><rect class="cls-3" x="387.99" y="541.25" width="16.8" height="16.8"/><rect class="cls-3" x="404.79" y="541.25" width="16.8" height="16.8"/><rect class="cls-3" x="423.21" y="541.25" width="16.8" height="16.8"/><rect class="cls-3" x="441.62" y="541.25" width="16.8" height="16.8"/><rect class="cls-3" x="461.1" y="541.4" width="22.53" height="16.49"/><polyline class="cls-3" points="480.34 543.17 480.34 541.52 458.43 541.52 458.43 543.17 458.43 558.05"/><rect class="cls-3" x="487.07" y="524.09" width="27.31" height="16.8"/><rect class="cls-3" x="511.99" y="524.09" width="27.31" height="16.8"/><rect class="cls-3" x="539.3" y="524.3" width="27.31" height="16.8"/><rect class="cls-3" x="565.15" y="524.3" width="27.31" height="16.8"/><rect class="cls-3" x="594.47" y="541.56" width="19.61" height="16.8"/><rect class="cls-3" x="612.89" y="541.67" width="19.61" height="16.8"/><rect class="cls-3" x="632.34" y="542.14" width="36.83" height="15.86"/><rect class="cls-3" x="687.42" y="541.56" width="16.8" height="16.8"/><rect class="cls-3" x="670.62" y="541.67" width="16.8" height="16.8"/><rect class="cls-3" x="705.84" y="541.56" width="16.8" height="16.8"/><rect class="cls-3" x="724.25" y="541.56" width="20.9" height="16.8"/><rect class="cls-3" x="745.54" y="541.56" width="16.8" height="16.8"/><rect class="cls-3" x="762.34" y="541.56" width="16.8" height="16.8"/><rect class="cls-3" x="780.76" y="541.56" width="16.8" height="16.8"/><rect class="cls-3" x="799.17" y="541.56" width="16.8" height="16.8"/><rect class="cls-3" x="816.82" y="541.56" width="16.8" height="16.8"/><rect class="cls-3" x="833.62" y="543.17" width="16.81" height="15.19"/><rect class="cls-3" x="833.62" y="541.56" width="16.81" height="1.61"/><rect class="cls-3" x="852.04" y="541.56" width="16.8" height="16.8"/><rect class="cls-3" x="870.45" y="541.56" width="16.8" height="16.8"/><rect class="cls-3" x="885.92" y="541.56" width="16.8" height="16.8"/><rect class="cls-3" x="902.73" y="541.56" width="16.8" height="16.8"/><rect class="cls-3" x="921.14" y="541.56" width="16.8" height="16.8"/><path class="cls-3" d="M938.51,541.32h7.77a2.49,2.49,0,0,1,2.49,2.49v13.72a.84.84,0,0,1-.84.84h-9.42a.84.84,0,0,1-.84-.84V542.16A.84.84,0,0,1,938.51,541.32Z"/><rect class="cls-3" x="691.89" y="698.87" width="16.8" height="16.8"/><polyline class="cls-3" points="742.49 698.87 725.78 698.87 725.78 715.32 725.78 715.67 742.58 715.67 742.58 715.32"/><rect class="cls-3" x="641.19" y="698.4" width="16.8" height="16.8"/><rect class="cls-3" x="675.08" y="698.4" width="16.8" height="16.8"/><rect class="cls-3" x="386.1" y="699.1" width="16.8" height="16.8"/><rect class="cls-3" x="419.99" y="699.1" width="16.8" height="16.8"/><polyline class="cls-3" points="335.41 698.63 352.21 698.63 352.21 715.32 352.21 715.43 335.41 715.43 335.41 715.32 335.41 713.63"/><rect class="cls-3" x="369.3" y="698.64" width="16.8" height="16.8"/><line class="cls-3" x1="680.74" y1="528.75" x2="669.17" y2="528.75"/><line class="cls-3" x1="722.02" y1="528.75" x2="710.45" y2="528.75"/><polyline class="cls-3" points="782.3 801.86 782.3 800.36 782.3 800.34 782.3 746.87 720.23 746.87 720.23 800.51 720.23 801.86 720.23 803.53"/><polyline class="cls-2" points="603.86 801.52 603.86 801.07 603.86 748.24 702.86 748.24"/><line class="cls-2" x1="693.61" y1="802.28" x2="731.44" y2="802.28"/><line class="cls-2" x1="348.27" y1="802.27" x2="386.1" y2="802.27"/><line class="cls-3" x1="705.47" y1="748.23" x2="705.47" y2="803.54"/><line class="cls-3" x1="948.77" y1="559.03" x2="948.77" y2="574.58"/><line class="cls-3" x1="131.23" y1="557.69" x2="131.23" y2="574.99"/><line class="cls-2" x1="131.23" y1="574.99" x2="948.77" y2="574.99"/><text class="cls-4" transform="translate(264.7 905.51)">BLACK STAR SQUARE</text><text class="cls-5" transform="translate(352.03 937.47)">DESIGNED BY LASHPIXEL</text></g></svg>